<svg version="1.1" id="Layer_1" xmlns="http://www.w3.org/2000/svg" xmlns:xlink="http://www.w3.org/1999/xlink" x="0px" y="0px"
	 width="100%" viewBox="0 0 4000 1080" enable-background="new 0 0 4000 1080" xml:space="preserve">
<path opacity="1.000000" stroke="none" 
	d="
M2922.000000,1082.000000 
	C1948.000000,1082.000000 975.000000,1082.000000 2.000000,1082.000000 
	C2.000000,722.000000 2.000000,362.000000 2.000000,2.000000 
	C1335.333374,2.000000 2668.666748,2.000000 4002.000000,2.000000 
	C4002.000000,362.000000 4002.000000,722.000000 4002.000000,1082.000000 
	C3642.333252,1082.000000 3282.666748,1082.000000 2922.000000,1082.000000 
M2395.668457,616.999878 
	C2395.668457,643.876953 2395.668457,670.753967 2395.668457,697.750793 
	C2541.424072,697.750793 2686.165283,697.750793 2831.258057,697.750793 
	C2831.258057,563.031494 2831.258057,428.898468 2831.258057,294.407349 
	C2685.870117,294.407349 2540.890869,294.407349 2395.668457,294.407349 
	C2395.668457,401.767578 2395.668457,508.383667 2395.668457,616.999878 
M1423.000122,297.663025 
	C1399.456055,297.663025 1375.912109,297.663025 1352.285156,297.663025 
	C1352.285156,433.067108 1352.285156,567.452637 1352.285156,701.793213 
	C1379.623413,703.785339 1779.363647,702.862122 1787.147095,700.818298 
	C1787.147095,566.717163 1787.147095,432.599518 1787.147095,297.662994 
	C1666.087036,297.662994 1545.543579,297.662994 1423.000122,297.663025 
M3391.668457,382.999847 
	C3391.668457,489.181732 3391.668457,595.363586 3391.668457,701.744629 
	C3537.341797,701.744629 3682.076172,701.744629 3826.941895,701.744629 
	C3826.941895,566.802124 3826.941895,432.453125 3826.941895,298.377747 
	C3681.467529,298.377747 3536.718262,298.377747 3391.668457,298.377747 
	C3391.668457,326.394196 3391.668457,353.696991 3391.668457,382.999847 
M372.999847,710.336914 
	C494.596588,710.190857 616.193359,710.045166 737.790100,709.877930 
	C738.061096,709.877563 738.357605,709.591797 738.595398,709.385376 
	C738.844238,709.169250 739.036499,708.887878 739.065552,708.854004 
	C739.065552,574.513855 739.065552,440.393433 739.065552,306.265259 
	C593.708191,306.265259 448.951721,306.265259 304.377930,306.265259 
	C304.377930,441.254913 304.377930,575.641174 304.377930,710.336914 
	C327.057587,710.336914 349.028687,710.336914 372.999847,710.336914 
z"/>
<path fill="#000000" opacity="0.2" stroke="none" 
	d="
M2395.668457,615.999817 
	C2395.668457,508.383667 2395.668457,401.767578 2395.668457,294.407349 
	C2540.890869,294.407349 2685.870117,294.407349 2831.258057,294.407349 
	C2831.258057,428.898468 2831.258057,563.031494 2831.258057,697.750793 
	C2686.165283,697.750793 2541.424072,697.750793 2395.668457,697.750793 
	C2395.668457,670.753967 2395.668457,643.876953 2395.668457,615.999817 
z"/>
<path fill="#000000" opacity="0.2" stroke="none" 
	d="
M1424.000244,297.663025 
	C1545.543579,297.662994 1666.087036,297.662994 1787.147095,297.662994 
	C1787.147095,432.599518 1787.147095,566.717163 1787.147095,700.818298 
	C1779.363647,702.862122 1379.623413,703.785339 1352.285156,701.793213 
	C1352.285156,567.452637 1352.285156,433.067108 1352.285156,297.663025 
	C1375.912109,297.663025 1399.456055,297.663025 1424.000244,297.663025 
z"/>
<path fill="#000000" opacity="0.2" stroke="none" 
	d="
M3391.668457,381.999817 
	C3391.668457,353.696991 3391.668457,326.394196 3391.668457,298.377747 
	C3536.718262,298.377747 3681.467529,298.377747 3826.941895,298.377747 
	C3826.941895,432.453125 3826.941895,566.802124 3826.941895,701.744629 
	C3682.076172,701.744629 3537.341797,701.744629 3391.668457,701.744629 
	C3391.668457,595.363586 3391.668457,489.181732 3391.668457,381.999817 
z"/>
<path fill="#000000" opacity="0.2" stroke="none" 
	d="
M371.999817,710.336914 
	C349.028687,710.336914 327.057587,710.336914 304.377930,710.336914 
	C304.377930,575.641174 304.377930,441.254913 304.377930,306.265259 
	C448.951721,306.265259 593.708191,306.265259 739.065552,306.265259 
	C739.065552,440.393433 739.065552,574.513855 739.065552,708.854004 
	C739.036499,708.887878 738.844238,709.169250 738.595398,709.385376 
	C738.357605,709.591797 738.061096,709.877563 737.790100,709.877930 
	C616.193359,710.045166 494.596588,710.190857 371.999817,710.336914 
z"/>
</svg>